<svg width="66" height="80" viewBox="0 0 66 80" fill="none" xmlns="http://www.w3.org/2000/svg">
<path d="M66 65.3579H0L0 0H66L66 65.3579ZM2.08672 63.2915H63.9133L63.9133 2.06642H2.08672L2.08672 63.2915Z" fill="#1F2122"/>
<path d="M40.1247 26.0369L38.2168 38.524H34.7588L33.4173 30.9963L32.0759 38.524H28.6179L26.71 26.0369H29.4526L30.5556 34.3911L31.897 26.0369H34.8482L36.2195 34.3911L37.3225 26.0369H40.1247Z" fill="#1F2122"/>
<path d="M60.6043 6.2583L58.7263 18.7454H55.2683L53.9268 11.2177L52.5854 18.7454H49.1274L47.2195 6.2583H49.9621L51.065 14.6125L52.4065 6.2583H55.3875L56.7588 14.6125L57.8618 6.2583H60.6043Z" fill="#1F2122"/>
<path d="M57.7425 29.1365C57.7425 29.786 57.5637 30.4059 57.2656 30.9668C56.9079 31.6162 56.4607 32.2066 55.9241 32.738L51.8997 36.5756H55.6856L55.6856 34.8339H57.5339L57.5339 38.4354H49.2168L49.2168 36.5166L54.4038 31.5867C54.7913 31.203 55.1192 30.7601 55.3875 30.2878C55.5664 29.9336 55.6856 29.5203 55.6856 29.1365C55.6856 28.8413 55.626 28.5461 55.5068 28.2804C55.3875 28.0443 55.2087 27.8376 55 27.69C54.7913 27.5424 54.5528 27.4244 54.3144 27.3653C54.0759 27.3063 53.8076 27.2768 53.5393 27.2472C52.8238 27.2177 52.1382 27.4539 51.6314 27.9557C51.1545 28.428 50.9458 29.1365 50.9458 30.0517H49.0379C49.0379 28.6052 49.4255 27.4834 50.2005 26.6568C50.9756 25.8303 52.1084 25.4465 53.5691 25.4465C54.1057 25.4465 54.6423 25.5351 55.1789 25.6827C55.6558 25.8303 56.1328 26.0664 56.5203 26.3911C56.9079 26.7159 57.2358 27.0996 57.4444 27.572C57.6531 28.0443 57.7425 28.5756 57.7425 29.1365Z" fill="#1F2122"/>
<path d="M57.832 38.7306H48.9187L48.9187 36.3985L54.2249 31.3801C54.5827 31.0258 54.9106 30.6125 55.1491 30.1697C55.3279 29.845 55.4173 29.4908 55.4173 29.1365C55.4173 28.8708 55.3577 28.6347 55.2683 28.3985C55.1789 28.1919 55.0298 28.0443 54.8509 27.8967C54.6721 27.7491 54.4634 27.6605 54.2547 27.6015C54.0163 27.5424 53.8076 27.5129 53.5691 27.5129C52.9431 27.4834 52.3171 27.69 51.8699 28.1328C51.4526 28.5461 51.2737 29.166 51.2737 30.0221L51.2737 30.3173H48.7696L48.7696 30.0221C48.7696 28.5166 49.187 27.3063 50.0217 26.4207C50.8564 25.5351 52.0488 25.0923 53.5989 25.0923C54.1653 25.0923 54.7317 25.1808 55.2683 25.3579C55.8049 25.5055 56.2818 25.7712 56.6992 26.1255C57.1165 26.4797 57.4743 26.893 57.7127 27.3948C57.981 27.9262 58.1003 28.5461 58.0705 29.1365C58.0705 29.8155 57.8916 30.4945 57.5637 31.1144C57.206 31.7934 56.729 32.4428 56.1626 32.9742L52.6152 36.31H55.3577L55.3577 34.5683H57.8022L57.8022 38.7306H57.832ZM49.5149 38.1402H57.2358L57.2358 35.1587H55.9837L55.9837 36.9004H51.1545L55.7154 32.5609C56.2222 32.059 56.6694 31.4982 56.9973 30.8487C57.2954 30.3173 57.4444 29.7269 57.4444 29.1365C57.4444 28.6347 57.355 28.1328 57.1463 27.6605C56.9377 27.2472 56.6694 26.893 56.3116 26.5978C55.9539 26.3026 55.5068 26.0959 55.0596 25.9483C54.5827 25.8007 54.0759 25.7122 53.5691 25.7122C52.1978 25.7122 51.1247 26.0959 50.4092 26.8339C49.7534 27.5424 49.3957 28.5166 49.336 29.7269H50.6775C50.6775 28.9889 50.9458 28.2804 51.4526 27.7196C52.019 27.1882 52.794 26.893 53.5691 26.9225C53.8672 26.9225 54.1355 26.952 54.4336 27.0406C54.7317 27.1292 55 27.2472 55.2087 27.4244C55.4472 27.6015 55.6558 27.8376 55.7751 28.1033C55.9241 28.428 56.0135 28.7528 56.0135 29.107C56.0135 29.5498 55.8943 29.9926 55.6856 30.4059C55.4173 30.9077 55.0596 31.3801 54.6721 31.7638L49.5447 36.6052L49.5149 38.1402Z" fill="#1F2122"/>
<path d="M15.3523 72.3542L14.5474 77.7565H13.0569L12.4905 74.5092L11.8943 77.7565H10.4038L9.59892 72.3542H10.7913L11.2683 75.9557L11.8645 72.3542H13.1165L13.7127 75.9557L14.1897 72.3542H15.3821H15.3523Z" fill="#1F2122"/>
<path d="M19.8238 76.1919C19.8238 75.8967 19.9133 75.6015 20.0921 75.3653C20.271 75.1292 20.5095 74.9225 20.7778 74.7749C21.0759 74.5978 21.4038 74.4797 21.7317 74.4207C22.0894 74.3321 22.4472 74.3026 22.8347 74.3026C23.0434 74.3026 23.2222 74.3026 23.3713 74.3026C23.5203 74.3026 23.6694 74.3026 23.8184 74.3321L23.8184 74.1255C23.8482 73.8598 23.6992 73.6236 23.4905 73.5055C23.2222 73.3579 22.9241 73.2989 22.626 73.2989C22.2981 73.2989 21.9404 73.3579 21.6423 73.4465C21.3144 73.5351 20.9865 73.6827 20.6883 73.8303L20.2114 72.8856C20.5691 72.679 20.9566 72.5314 21.374 72.4133C21.7913 72.2952 22.2385 72.2362 22.6856 72.2362C22.9837 72.2362 23.2818 72.2657 23.5501 72.3247C23.8184 72.3838 24.0867 72.5018 24.3252 72.6494C24.5637 72.7971 24.7425 73.0037 24.8618 73.2399C25.0108 73.5055 25.0705 73.8303 25.0705 74.1255L25.0705 77.7565H23.878L23.878 76.9594C23.6694 77.2546 23.3713 77.4908 23.0434 77.6384C22.6558 77.8155 22.2683 77.8745 21.8509 77.8745C21.6125 77.8745 21.3442 77.845 21.1057 77.7565C20.897 77.6974 20.6883 77.5793 20.5095 77.4317C20.3306 77.2841 20.1816 77.107 20.0921 76.9004C19.8835 76.6937 19.8238 76.4576 19.8238 76.1919ZM22.0596 76.7823C22.2981 76.7823 22.5068 76.7528 22.7154 76.6937C22.9241 76.6347 23.103 76.5461 23.2818 76.4576C23.4309 76.369 23.5501 76.2214 23.6694 76.0738C23.7588 75.9262 23.8184 75.7491 23.8184 75.572L23.8184 75.3653C23.6396 75.3358 23.4607 75.3063 23.2818 75.3063H22.8347C22.3875 75.2767 21.9106 75.3653 21.4932 75.5424C21.2547 75.631 21.0759 75.8376 21.0461 76.1033C21.0163 76.5756 21.374 76.7823 22.0596 76.7823Z" fill="#1F2122"/>
<path d="M35.3252 72.3542L32.9702 78.7897C32.8509 79.2029 32.5827 79.5277 32.1951 79.7343C31.8374 79.9114 31.4201 80 31.0027 80C30.8238 80 30.645 79.9705 30.4959 79.941C30.2873 79.9114 30.1084 79.8524 29.9295 79.7934L30.168 78.7011C30.3171 78.7601 30.4661 78.7897 30.6152 78.8192C30.7344 78.8487 30.8537 78.8487 31.0027 78.8487C31.3306 78.8782 31.6287 78.6716 31.748 78.3764L31.9566 77.845L29.8699 72.3247H31.122L32.6125 76.3985L34.0135 72.3247H35.3252V72.3542Z" fill="#1F2122"/>
<path d="M45.2818 72.2657C45.2818 72.6494 45.1626 73.0037 44.9837 73.3579C44.7751 73.7417 44.5068 74.0959 44.2087 74.3911L41.8238 76.6642H44.0596L44.0596 75.631H45.1626L45.1626 77.7565H40.3035L40.3035 76.6347L43.374 73.7417C43.6125 73.5055 43.7913 73.2694 43.9404 72.9742C44.0596 72.7675 44.1192 72.5314 44.1192 72.2952C44.1192 72.1181 44.0894 71.941 44 71.7934C43.9404 71.6458 43.8211 71.5277 43.7019 71.4391C43.5827 71.3505 43.4336 71.2915 43.2845 71.2325C43.1355 71.2029 42.9864 71.1734 42.8374 71.1734C42.4201 71.1439 42.0027 71.2915 41.7046 71.5867C41.4065 71.9114 41.2575 72.3542 41.2873 72.8266H40.1545C40.1247 72.0886 40.3631 71.3801 40.8401 70.8192C41.2873 70.3469 41.9729 70.1107 42.8076 70.1107C43.1355 70.1107 43.4336 70.1697 43.7317 70.2583C44.0298 70.3469 44.2981 70.4945 44.5068 70.6716C44.7453 70.8487 44.9241 71.0849 45.0434 71.3505C45.2222 71.6458 45.2818 71.941 45.2818 72.2657Z" fill="#1F2122"/>
<path d="M55.7154 72.3542L54.9106 77.7565H53.4201L52.8537 74.5092L52.2575 77.7565H50.7669L49.9621 72.3838H51.1545L51.6314 75.9852L52.2276 72.3838H53.5095L54.1057 75.9852L54.5827 72.3838H55.7751L55.7154 72.3542Z" fill="#1F2122"/>
</svg>
