<svg width="46" height="56" viewBox="0 0 46 56" fill="none" xmlns="http://www.w3.org/2000/svg">
<path d="M46 45.7505H0V0H46V45.7505ZM1.45438 44.3041H44.5456V1.44649H1.45438V44.3041Z" fill="#1F2122"/>
<path d="M27.9657 18.2258L26.636 26.9668H24.2258L23.2909 21.6974L22.3559 26.9668H19.9458L18.6161 18.2258H20.5276L21.2963 24.0738L22.2313 18.2258H24.2882L25.2439 24.0738L26.0126 18.2258H27.9657Z" fill="#1F2122"/>
<path d="M42.2394 4.38081L40.9304 13.1218H38.5203L37.5854 7.8524L36.6504 13.1218H34.2403L32.9106 4.38081H34.822L35.5908 10.2288L36.5257 4.38081H38.6034L39.5592 10.2288L40.3279 4.38081H42.2394Z" fill="#1F2122"/>
<path d="M40.2448 20.3956C40.2448 20.8502 40.1201 21.2841 39.9124 21.6768C39.6631 22.1314 39.3514 22.5446 38.9774 22.9166L36.1725 25.603H38.8112V24.3838H40.0994V26.9048H34.3026V25.5616L37.9178 22.1107C38.1879 21.8421 38.4164 21.5321 38.6034 21.2015C38.7281 20.9535 38.8112 20.6642 38.8112 20.3956C38.8112 20.1889 38.7696 19.9823 38.6865 19.7963C38.6034 19.631 38.4788 19.4863 38.3333 19.383C38.1879 19.2797 38.0217 19.197 37.8555 19.1557C37.6893 19.1144 37.5023 19.0937 37.3153 19.0731C36.8166 19.0524 36.3388 19.2177 35.9855 19.569C35.6531 19.8996 35.5077 20.3956 35.5077 21.0362H34.178C34.178 20.0236 34.4481 19.2384 34.9883 18.6598C35.5285 18.0812 36.318 17.8125 37.336 17.8125C37.71 17.8125 38.084 17.8745 38.458 17.9779C38.7904 18.0812 39.1229 18.2465 39.393 18.4738C39.6631 18.7011 39.8916 18.9697 40.037 19.3004C40.1825 19.631 40.2448 20.003 40.2448 20.3956Z" fill="#1F2122"/>
<path d="M40.3071 27.1114H34.0949V25.479L37.7931 21.9661C38.0425 21.7181 38.271 21.4288 38.4372 21.1188C38.5619 20.8915 38.6242 20.6435 38.6242 20.3956C38.6242 20.2096 38.5827 20.0443 38.5203 19.879C38.458 19.7343 38.3541 19.631 38.2295 19.5277C38.1048 19.4244 37.9594 19.3624 37.8139 19.321C37.6477 19.2797 37.5023 19.259 37.336 19.259C36.8997 19.2384 36.4634 19.383 36.1518 19.693C35.8609 19.9823 35.7362 20.4162 35.7362 21.0155V21.2221H33.991V21.0155C33.991 19.9616 34.2818 19.1144 34.8636 18.4945C35.4454 17.8745 36.2764 17.5646 37.3568 17.5646C37.7516 17.5646 38.1463 17.6266 38.5203 17.7506C38.8943 17.8539 39.2267 18.0399 39.5176 18.2878C39.8085 18.5358 40.0578 18.8251 40.224 19.1764C40.411 19.5483 40.4941 19.9823 40.4734 20.3956C40.4734 20.8708 40.3487 21.3461 40.1201 21.7801C39.8708 22.2554 39.5384 22.71 39.1436 23.0819L36.6712 25.417H38.5827V24.1978H40.2864V27.1114H40.3071ZM34.5104 26.6982H39.8916V24.6111H39.019V25.8303H35.6531L38.832 22.7926C39.1852 22.4413 39.4968 22.0487 39.7254 21.5941C39.9332 21.2221 40.037 20.8089 40.037 20.3956C40.037 20.0443 39.9747 19.693 39.8293 19.3624C39.6838 19.0731 39.4968 18.8251 39.2475 18.6185C38.9982 18.4118 38.6865 18.2672 38.3749 18.1638C38.0425 18.0605 37.6893 17.9985 37.336 17.9985C36.3803 17.9985 35.6323 18.2672 35.1337 18.7838C34.6766 19.2797 34.4273 19.9616 34.3857 20.8089H35.3207C35.3207 20.2922 35.5077 19.7963 35.8609 19.4037C36.2556 19.0317 36.7958 18.8251 37.336 18.8458C37.5438 18.8458 37.7308 18.8664 37.9386 18.9284C38.1463 18.9904 38.3333 19.0731 38.4788 19.197C38.645 19.321 38.7904 19.4863 38.8735 19.6723C38.9774 19.8996 39.0397 20.1269 39.0397 20.3749C39.0397 20.6849 38.9566 20.9948 38.8112 21.2841C38.6242 21.6354 38.3749 21.9661 38.1048 22.2347L34.5312 25.6236L34.5104 26.6982Z" fill="#1F2122"/>
<path d="M10.7001 50.648L10.1391 54.4295H9.10027L8.70551 52.1565L8.28997 54.4295H7.25113L6.69015 50.648H7.52123L7.85366 53.169L8.2692 50.648H9.14182L9.55736 53.169L9.88979 50.648H10.7209H10.7001Z" fill="#1F2122"/>
<path d="M13.8166 53.3343C13.8166 53.1277 13.879 52.921 14.0036 52.7557C14.1283 52.5904 14.2945 52.4458 14.4815 52.3424C14.6892 52.2184 14.9178 52.1358 15.1463 52.0945C15.3957 52.0325 15.645 52.0118 15.9151 52.0118C16.0605 52.0118 16.1852 52.0118 16.2891 52.0118C16.393 52.0118 16.4968 52.0118 16.6007 52.0325V51.8878C16.6215 51.7018 16.5176 51.5365 16.3722 51.4539C16.1852 51.3506 15.9774 51.3092 15.7696 51.3092C15.5411 51.3092 15.2918 51.3506 15.084 51.4125C14.8555 51.4745 14.6269 51.5779 14.4192 51.6812L14.0867 51.0199C14.336 50.8753 14.6061 50.772 14.897 50.6893C15.1879 50.6066 15.4995 50.5653 15.8112 50.5653C16.019 50.5653 16.2267 50.586 16.4137 50.6273C16.6007 50.6686 16.7877 50.7513 16.9539 50.8546C17.1201 50.9579 17.2448 51.1026 17.3279 51.2679C17.4318 51.4539 17.4734 51.6812 17.4734 51.8878V54.4295H16.6423V53.8716C16.4968 54.0782 16.2891 54.2435 16.0605 54.3469C15.7904 54.4708 15.5203 54.5122 15.2295 54.5122C15.0632 54.5122 14.8762 54.4915 14.71 54.4295C14.5646 54.3882 14.4192 54.3055 14.2945 54.2022C14.1698 54.0989 14.0659 53.9749 14.0036 53.8303C13.8582 53.6856 13.8166 53.5203 13.8166 53.3343ZM15.3749 53.7476C15.5411 53.7476 15.6865 53.7269 15.832 53.6856C15.9774 53.6443 16.1021 53.5823 16.2267 53.5203C16.3306 53.4583 16.4137 53.355 16.4968 53.2517C16.5592 53.1483 16.6007 53.0244 16.6007 52.9004V52.7557C16.4761 52.7351 16.3514 52.7144 16.2267 52.7144H15.9151C15.6034 52.6937 15.271 52.7557 14.9801 52.8797C14.8139 52.9417 14.6893 53.0863 14.6685 53.2723C14.6477 53.6029 14.897 53.7476 15.3749 53.7476Z" fill="#1F2122"/>
<path d="M24.6206 50.648L22.9792 55.1528C22.8961 55.4421 22.7091 55.6694 22.439 55.814C22.1897 55.938 21.8988 56 21.608 56C21.4833 56 21.3586 55.9793 21.2547 55.9587C21.1093 55.938 20.9846 55.8967 20.86 55.8553L21.0262 55.0908C21.1301 55.1321 21.234 55.1528 21.3379 55.1734C21.421 55.1941 21.5041 55.1941 21.608 55.1941C21.8365 55.2148 22.0443 55.0701 22.1274 54.8635L22.2728 54.4915L20.8184 50.6273H21.6911L22.7299 53.479L23.7064 50.6273H24.6206V50.648Z" fill="#1F2122"/>
<path d="M31.5601 50.586C31.5601 50.8546 31.477 51.1026 31.3523 51.3506C31.2069 51.6192 31.0199 51.8672 30.8121 52.0738L29.15 53.6649H30.7082V52.9417H31.477V54.4295H28.0903V53.6443L30.2304 51.6192C30.3966 51.4539 30.5212 51.2886 30.6251 51.0819C30.7082 50.9373 30.7498 50.772 30.7498 50.6066C30.7498 50.4827 30.729 50.3587 30.6667 50.2553C30.6251 50.152 30.542 50.0694 30.4589 50.0074C30.3758 49.9454 30.2719 49.9041 30.168 49.8627C30.0641 49.8421 29.9603 49.8214 29.8564 49.8214C29.5655 49.8007 29.2746 49.9041 29.0668 50.1107C28.8591 50.338 28.7552 50.648 28.776 50.9786H27.9865C27.9657 50.462 28.1319 49.966 28.4643 49.5734C28.776 49.2428 29.2538 49.0775 29.8356 49.0775C30.0641 49.0775 30.2719 49.1188 30.4797 49.1808C30.6874 49.2428 30.8744 49.3461 31.0199 49.4701C31.1861 49.5941 31.3108 49.7594 31.3939 49.9454C31.5185 50.152 31.5601 50.3587 31.5601 50.586Z" fill="#1F2122"/>
<path d="M38.832 50.648L38.271 54.4295H37.2322L36.8374 52.1565L36.4219 54.4295H35.383L34.822 50.6686H35.6531L35.9855 53.1897L36.4011 50.6686H37.2945L37.71 53.1897L38.0425 50.6686H38.8735L38.832 50.648Z" fill="#1F2122"/>
</svg>
