<svg width="51" height="42" viewBox="0 0 51 42" fill="none" xmlns="http://www.w3.org/2000/svg">
<path d="M50 36.5556C50 37.7343 49.5307 38.8648 48.6953 39.6983C47.8599 40.5317 46.7269 41 45.5455 41H5.45455C4.27313 41 3.1401 40.5317 2.30471 39.6983C1.46932 38.8648 1 37.7343 1 36.5556V12.1111C1 10.9324 1.46932 9.80191 2.30471 8.96841C3.1401 8.13492 4.27313 7.66667 5.45455 7.66667H14.3636L18.8182 1H32.1818L36.6364 7.66667H45.5455C46.7269 7.66667 47.8599 8.13492 48.6953 8.96841C49.5307 9.80191 50 10.9324 50 12.1111V36.5556Z" stroke="#29C8EB" stroke-width="1.5" stroke-linecap="round" stroke-linejoin="round"/>
<path d="M25.5 32.1111C30.4204 32.1111 34.4091 28.1314 34.4091 23.2222C34.4091 18.313 30.4204 14.3333 25.5 14.3333C20.5796 14.3333 16.5909 18.313 16.5909 23.2222C16.5909 28.1314 20.5796 32.1111 25.5 32.1111Z" stroke="#29C8EB" stroke-width="1.5" stroke-linecap="round" stroke-linejoin="round"/>
</svg>
